<?xml version="1.0" encoding="UTF-8"?>
<svg width="70px" height="45px" viewBox="0 0 70 45" version="1.1" xmlns="http://www.w3.org/2000/svg" xmlns:xlink="http://www.w3.org/1999/xlink">
    <!-- Generator: Sketch 44.1 (41455) - http://www.bohemiancoding.com/sketch -->
    <title>mastercard</title>
    <desc>Created with Sketch.</desc>
    <defs></defs>
    <g id="Figurehead" stroke="none" stroke-width="1" fill="none" fill-rule="evenodd">
        <g id="acceptance-logos" transform="translate(-49.000000, -47.000000)" fill-rule="nonzero">
            <g id="mastercard" transform="translate(49.000000, 47.000000)">
                <rect id="XMLID_21_" fill="#000000" x="0.329411765" y="0.329411765" width="69.3" height="43.8117647"></rect>
                <g id="Group" transform="translate(10.705882, 3.294118)">
                    <path d="M8.97647059,37.1823529 L8.97647059,34.7117647 C8.97647059,33.7647059 8.4,33.1470588 7.45294118,33.1470588 C6.95882353,33.1470588 6.42352941,33.3117647 6.05294118,33.8470588 C5.76470588,33.3941176 5.35294118,33.1470588 4.73529412,33.1470588 C4.32352941,33.1470588 3.87058824,33.2705882 3.54117647,33.7235294 L3.54117647,33.2294118 L2.75882353,33.2294118 L2.75882353,37.1823529 L3.54117647,37.1823529 L3.54117647,34.9176471 C3.54117647,34.2176471 3.95294118,33.8882353 4.52941176,33.8882353 C5.10588235,33.8882353 5.43529412,34.2588235 5.43529412,34.9176471 L5.43529412,37.1823529 L6.21764706,37.1823529 L6.21764706,34.9176471 C6.21764706,34.2176471 6.62941176,33.8882353 7.20588235,33.8882353 C7.78235294,33.8882353 8.11176471,34.2588235 8.11176471,34.9176471 L8.11176471,37.1823529 L8.97647059,37.1823529 L8.97647059,37.1823529 Z M21.8235294,33.2705882 L20.3823529,33.2705882 L20.3823529,32.0764706 L19.6,32.0764706 L19.6,33.2705882 L18.7764706,33.2705882 L18.7764706,33.9705882 L19.6,33.9705882 L19.6,35.8235294 C19.6,36.7294118 19.9294118,37.2647059 20.9176471,37.2647059 C21.2882353,37.2647059 21.7,37.1411765 21.9882353,36.9764706 L21.7411765,36.2764706 C21.4941176,36.4411765 21.2058824,36.4823529 21,36.4823529 C20.5882353,36.4823529 20.3823529,36.2352941 20.3823529,35.8235294 L20.3823529,33.9294118 L21.8235294,33.9294118 L21.8235294,33.2705882 L21.8235294,33.2705882 Z M29.1529412,33.1470588 C28.6588235,33.1470588 28.2882353,33.3941176 28.0823529,33.7235294 L28.0823529,33.2294118 L27.3,33.2294118 L27.3,37.1823529 L28.0823529,37.1823529 L28.0823529,34.9588235 C28.0823529,34.3 28.4117647,33.8882353 28.9470588,33.8882353 C29.1117647,33.8882353 29.3176471,33.9294118 29.4823529,33.9705882 L29.7294118,33.2294118 C29.5647059,33.1882353 29.3176471,33.1470588 29.1529412,33.1470588 L29.1529412,33.1470588 L29.1529412,33.1470588 Z M18.0764706,33.5588235 C17.6647059,33.2705882 17.0882353,33.1470588 16.4705882,33.1470588 C15.4823529,33.1470588 14.8647059,33.6 14.8647059,34.3823529 C14.8647059,35.0411765 15.3176471,35.4117647 16.1823529,35.5352941 L16.5941176,35.5764706 C17.0470588,35.6588235 17.3352941,35.8235294 17.3352941,36.0294118 C17.3352941,36.3176471 17.0058824,36.5235294 16.3882353,36.5235294 C15.7705882,36.5235294 15.3588235,36.3176471 15.0705882,36.1117647 L14.6588235,36.7294118 C15.2352941,37.1411765 15.9352941,37.2235294 16.3470588,37.2235294 C17.5,37.2235294 18.1176471,36.6882353 18.1176471,35.9470588 C18.1176471,35.2470588 17.6235294,34.9176471 16.7588235,34.7941176 L16.3470588,34.7529412 C15.9764706,34.7117647 15.6470588,34.5882353 15.6470588,34.3411765 C15.6470588,34.0529412 15.9764706,33.8470588 16.4294118,33.8470588 C16.9235294,33.8470588 17.4176471,34.0529412 17.6647059,34.1764706 L18.0764706,33.5588235 L18.0764706,33.5588235 Z M30.0176471,35.2058824 C30.0176471,36.4 30.8,37.2647059 32.0764706,37.2647059 C32.6529412,37.2647059 33.0647059,37.1411765 33.4764706,36.8117647 L33.0647059,36.1941176 C32.7352941,36.4411765 32.4058824,36.5647059 32.0352941,36.5647059 C31.3352941,36.5647059 30.8,36.0294118 30.8,35.2470588 C30.8,34.4647059 31.3352941,33.9294118 32.0352941,33.9294118 C32.4058824,33.9294118 32.7352941,34.0529412 33.0647059,34.3 L33.4764706,33.6823529 C33.0647059,33.3529412 32.6529412,33.2294118 32.0764706,33.2294118 C30.8411765,33.1470588 30.0176471,34.0117647 30.0176471,35.2058824 L30.0176471,35.2058824 L30.0176471,35.2058824 Z M24.5,33.1470588 C23.3470588,33.1470588 22.5647059,33.9705882 22.5647059,35.2058824 C22.5647059,36.4411765 23.3882353,37.2647059 24.5823529,37.2647059 C25.1588235,37.2647059 25.7352941,37.1 26.1882353,36.7294118 L25.7764706,36.1529412 C25.4470588,36.4 25.0352941,36.5647059 24.6235294,36.5647059 C24.0882353,36.5647059 23.5117647,36.2352941 23.4294118,35.5352941 L26.3529412,35.5352941 L26.3529412,35.2058824 C26.3529412,33.9705882 25.6117647,33.1470588 24.5,33.1470588 L24.5,33.1470588 L24.5,33.1470588 Z M24.4588235,33.8882353 C25.0352941,33.8882353 25.4470588,34.2588235 25.4882353,34.8764706 L23.3470588,34.8764706 C23.4705882,34.3 23.8411765,33.8882353 24.4588235,33.8882353 L24.4588235,33.8882353 L24.4588235,33.8882353 Z M13.7941176,35.2058824 L13.7941176,33.2294118 L13.0117647,33.2294118 L13.0117647,33.7235294 C12.7235294,33.3529412 12.3117647,33.1470588 11.7352941,33.1470588 C10.6235294,33.1470588 9.8,34.0117647 9.8,35.2058824 C9.8,36.4 10.6235294,37.2647059 11.7352941,37.2647059 C12.3117647,37.2647059 12.7235294,37.0588235 13.0117647,36.6882353 L13.0117647,37.1823529 L13.7941176,37.1823529 L13.7941176,35.2058824 L13.7941176,35.2058824 Z M10.6235294,35.2058824 C10.6235294,34.4647059 11.0764706,33.8882353 11.8588235,33.8882353 C12.6,33.8882353 13.0529412,34.4647059 13.0529412,35.2058824 C13.0529412,35.9882353 12.5588235,36.5235294 11.8588235,36.5235294 C11.0764706,36.5647059 10.6235294,35.9470588 10.6235294,35.2058824 L10.6235294,35.2058824 L10.6235294,35.2058824 Z M41.0529412,33.1470588 C40.5588235,33.1470588 40.1882353,33.3941176 39.9823529,33.7235294 L39.9823529,33.2294118 L39.2,33.2294118 L39.2,37.1823529 L39.9823529,37.1823529 L39.9823529,34.9588235 C39.9823529,34.3 40.3117647,33.8882353 40.8470588,33.8882353 C41.0117647,33.8882353 41.2176471,33.9294118 41.3823529,33.9705882 L41.6294118,33.2294118 C41.4647059,33.1882353 41.2176471,33.1470588 41.0529412,33.1470588 L41.0529412,33.1470588 L41.0529412,33.1470588 Z M38.0058824,35.2058824 L38.0058824,33.2294118 L37.2235294,33.2294118 L37.2235294,33.7235294 C36.9352941,33.3529412 36.5235294,33.1470588 35.9470588,33.1470588 C34.8352941,33.1470588 34.0117647,34.0117647 34.0117647,35.2058824 C34.0117647,36.4 34.8352941,37.2647059 35.9470588,37.2647059 C36.5235294,37.2647059 36.9352941,37.0588235 37.2235294,36.6882353 L37.2235294,37.1823529 L38.0058824,37.1823529 L38.0058824,35.2058824 L38.0058824,35.2058824 Z M34.8352941,35.2058824 C34.8352941,34.4647059 35.2882353,33.8882353 36.0705882,33.8882353 C36.8117647,33.8882353 37.2647059,34.4647059 37.2647059,35.2058824 C37.2647059,35.9882353 36.7705882,36.5235294 36.0705882,36.5235294 C35.2882353,36.5647059 34.8352941,35.9470588 34.8352941,35.2058824 L34.8352941,35.2058824 L34.8352941,35.2058824 Z M45.9529412,35.2058824 L45.9529412,31.6647059 L45.1705882,31.6647059 L45.1705882,33.7235294 C44.8823529,33.3529412 44.4705882,33.1470588 43.8941176,33.1470588 C42.7823529,33.1470588 41.9588235,34.0117647 41.9588235,35.2058824 C41.9588235,36.4 42.7823529,37.2647059 43.8941176,37.2647059 C44.4705882,37.2647059 44.8823529,37.0588235 45.1705882,36.6882353 L45.1705882,37.1823529 L45.9529412,37.1823529 L45.9529412,35.2058824 L45.9529412,35.2058824 Z M42.7823529,35.2058824 C42.7823529,34.4647059 43.2352941,33.8882353 44.0176471,33.8882353 C44.7588235,33.8882353 45.2117647,34.4647059 45.2117647,35.2058824 C45.2117647,35.9882353 44.7176471,36.5235294 44.0176471,36.5235294 C43.2352941,36.5647059 42.7823529,35.9470588 42.7823529,35.2058824 L42.7823529,35.2058824 Z" id="XMLID_567_" fill="#FFFFFF"></path>
                    <g id="XMLID_328_">
                        <rect id="Rectangle-path" fill="#FF5F00" x="17.1705882" y="3.25294118" width="14.2882353" height="23.3058824"></rect>
                        <path d="M18.6117647,14.9058824 C18.6117647,10.1705882 20.8352941,5.97058824 24.2529412,3.25294118 C21.7411765,1.27647059 18.5705882,0.0823529412 15.1117647,0.0823529412 C6.91764706,0.0823529412 0.288235294,6.71176471 0.288235294,14.9058824 C0.288235294,23.1 6.91764706,29.7294118 15.1117647,29.7294118 C18.5705882,29.7294118 21.7411765,28.5352941 24.2529412,26.5588235 C20.8352941,23.8411765 18.6117647,19.6411765 18.6117647,14.9058824 L18.6117647,14.9058824 Z" id="XMLID_330_" fill="#EB001B"></path>
                        <path d="M48.2588235,14.9058824 C48.2588235,23.1 41.6294118,29.7294118 33.4352941,29.7294118 C29.9764706,29.7294118 26.8058824,28.5352941 24.2941176,26.5588235 C27.7529412,23.8411765 29.9352941,19.6411765 29.9352941,14.9058824 C29.9352941,10.1705882 27.7117647,5.97058824 24.2941176,3.25294118 C26.8058824,1.27647059 29.9764706,0.0823529412 33.4352941,0.0823529412 C41.6294118,0.0823529412 48.2588235,6.71176471 48.2588235,14.9058824 L48.2588235,14.9058824 Z" id="Shape" fill="#F79E1B"></path>
                    </g>
                </g>
            </g>
        </g>
    </g>
</svg>