<?xml version="1.0" encoding="UTF-8"?>
<svg width="71px" height="45px" viewBox="0 0 71 45" version="1.1" xmlns="http://www.w3.org/2000/svg" xmlns:xlink="http://www.w3.org/1999/xlink">
    <!-- Generator: Sketch 44.1 (41455) - http://www.bohemiancoding.com/sketch -->
    <title>visa</title>
    <desc>Created with Sketch.</desc>
    <defs></defs>
    <g id="Figurehead" stroke="none" stroke-width="1" fill="none" fill-rule="evenodd">
        <g id="acceptance-logos" transform="translate(-96.000000, -180.000000)" fill-rule="nonzero">
            <g id="visa" transform="translate(96.000000, 180.000000)">
                <g id="g4145" transform="translate(35.500000, 22.500000) scale(-1, 1) rotate(-180.000000) translate(-35.500000, -22.500000) ">
                    <polygon id="path4147" fill="#FFFFFF" points="70.2951613 0.299784173 0.29516129 0.299784173 0.29516129 44.9259382 70.2951613 44.9259382"></polygon>
                    <polygon id="path4149" fill="#F7B600" points="1.45548387 7.51758993 68.8109677 7.51758993 68.8109677 1.45715827 1.45548387 1.45715827"></polygon>
                    <polygon id="path4151" fill="#1A1F71" points="1.45548387 37.4947122 68.8109677 37.4947122 68.8109677 43.5551439 1.45548387 43.5551439"></polygon>
                    <g id="g4153" transform="translate(8.064516, 13.597122)" fill="#1A1F71">
                        <g id="g4155-Clipped">
                            <g id="g4155">
                                <g id="g4161" transform="translate(0.036226, 0.062288)">
                                    <path d="M26.4516129,17.1582734 L22.9012903,0.500179856 L18.6070968,0.500179856 L22.1577419,17.1582734 L26.4516129,17.1582734 L26.4516129,17.1582734 Z M44.5174194,6.40165468 L46.7780645,12.6576259 L48.0783871,6.40165468 L44.5174194,6.40165468 L44.5174194,6.40165468 Z M49.3106452,0.500179856 L53.2812903,0.500179856 L49.8122581,17.1582734 L46.1493548,17.1582734 C45.323871,17.1582734 44.6283871,16.6778417 44.3203226,15.9371223 L37.8767742,0.500179856 L42.3864516,0.500179856 L43.2819355,2.98780576 L48.7903226,2.98780576 L49.3106452,0.500179856 L49.3106452,0.500179856 Z M38.1003226,5.93870504 C38.1193548,10.3347842 32.0451613,10.5785612 32.0854839,12.5426978 C32.0987097,13.1396763 32.6658065,13.7755036 33.906129,13.9380216 C34.5212903,14.0176619 36.2177419,14.0817626 38.1412903,13.192446 L38.8935484,16.7264029 C37.8603226,17.101295 36.5309677,17.4625899 34.8770968,17.4625899 C30.6319355,17.4625899 27.6454839,15.1996403 27.6216129,11.9564029 C27.5945161,9.5581295 29.7548387,8.22107914 31.3790323,7.42241007 C33.053871,6.60593525 33.6151613,6.0821223 33.6070968,5.35273381 C33.5954839,4.23517986 32.2712903,3.7405036 31.0390323,3.72172662 C28.8783871,3.68805755 27.6267742,4.30769784 26.6287097,4.77453237 L25.8493548,1.12273381 C26.8541935,0.661079137 28.7058065,0.259316547 30.6232258,0.238597122 C35.136129,0.238597122 38.0870968,2.47532374 38.1003226,5.93870504 L38.1003226,5.93870504 Z M20.3158065,17.1582734 L13.3580645,0.500179856 L8.81935484,0.500179856 L5.39516129,13.7946043 C5.18774194,14.6120504 5.00677419,14.912482 4.37548387,15.2579137 C3.34290323,15.8208993 1.63806452,16.3473022 0.139354839,16.6749281 L0.240645161,17.1582734 L7.54774194,17.1582734 C8.4783871,17.1582734 9.31580645,16.5366906 9.52870968,15.4608993 L11.3374194,5.82053957 L15.8045161,17.1582734 L20.3158065,17.1582734 L20.3158065,17.1582734 Z" id="path4163"></path>
                                </g>
                            </g>
                        </g>
                    </g>
                </g>
            </g>
        </g>
    </g>
</svg>